<svg width="16" height="16" viewBox="0 0 16 16" fill="none" xmlns="http://www.w3.org/2000/svg">
<path fill-rule="evenodd" clip-rule="evenodd" d="M11.354 10.146C11.4006 10.1924 11.4375 10.2476 11.4627 10.3083C11.4879 10.3691 11.5009 10.4342 11.5009 10.5C11.5009 10.5657 11.4879 10.6309 11.4627 10.6916C11.4375 10.7524 11.4006 10.8075 11.354 10.854L8.35402 13.854C8.30758 13.9005 8.2524 13.9375 8.19166 13.9627C8.13091 13.9879 8.06579 14.0009 8.00002 14.0009C7.93425 14.0009 7.86913 13.9879 7.80839 13.9627C7.74764 13.9375 7.69247 13.9005 7.64602 13.854L4.64602 10.854C4.55213 10.7601 4.49939 10.6328 4.49939 10.5C4.49939 10.3672 4.55213 10.2399 4.64602 10.146C4.73991 10.0521 4.86725 9.99935 5.00002 9.99935C5.1328 9.99935 5.26014 10.0521 5.35402 10.146L8.00002 12.793L10.646 10.146C10.6925 10.0994 10.7476 10.0625 10.8084 10.0373C10.8691 10.0121 10.9343 9.99908 11 9.99908C11.0658 9.99908 11.1309 10.0121 11.1917 10.0373C11.2524 10.0625 11.3076 10.0994 11.354 10.146Z" fill="#4D545F"/>
<path fill-rule="evenodd" clip-rule="evenodd" d="M8 2C8.13261 2 8.25979 2.05268 8.35355 2.14645C8.44732 2.24021 8.5 2.36739 8.5 2.5L8.5 13C8.5 13.1326 8.44732 13.2598 8.35355 13.3536C8.25978 13.4473 8.13261 13.5 8 13.5C7.86739 13.5 7.74021 13.4473 7.64645 13.3536C7.55268 13.2598 7.5 13.1326 7.5 13L7.5 2.5C7.5 2.36739 7.55268 2.24021 7.64645 2.14645C7.74021 2.05268 7.86739 2 8 2Z" fill="#4D545F"/>
</svg>
