<svg width="27" height="27" viewBox="0 0 27 27" fill="none" xmlns="http://www.w3.org/2000/svg">
<path d="M11.4763 17.2169L6.35125 12.1537C6.01718 11.8197 5.573 11.6357 5.10061 11.6357C4.77608 11.6357 4.46489 11.7225 4.19358 11.8852V5.79002C4.19358 5.47889 4.11252 5.18642 3.97093 4.93219C4.06416 4.9005 4.16251 4.88304 4.26334 4.88304C4.76348 4.88304 5.17032 5.28994 5.17032 5.79007V10.2699C5.17032 10.5078 5.36322 10.7008 5.60116 10.7008C5.8391 10.7008 6.032 10.5078 6.032 10.2699V5.79007C6.032 4.8148 5.23861 4.02136 4.26334 4.02136C3.93497 4.02136 3.61861 4.11159 3.34387 4.27929C3.07587 4.11576 2.76126 4.02136 2.42502 4.02136C1.44975 4.02136 0.656311 4.8148 0.656311 5.79044L0.663799 14.2861C0.664168 14.6667 0.805075 15.204 0.991596 15.5359C0.994602 15.5412 0.997661 15.5464 1.00098 15.5516L6.30764 24.1172C6.41955 24.321 6.52048 24.7092 6.52048 24.938V26.5616C6.52048 26.7996 6.71338 26.9925 6.95132 26.9925C7.18926 26.9925 7.38216 26.7996 7.38216 26.5616V24.938C7.38216 24.5572 7.24141 24.0198 7.05484 23.6878C7.05183 23.6825 7.04877 23.6773 7.0455 23.6721L1.73868 15.1064C1.62678 14.9024 1.52569 14.5141 1.52543 14.2853L1.51794 5.79002C1.51794 5.28989 1.92478 4.88299 2.42492 4.88299C2.92505 4.88299 3.3319 5.28989 3.3319 5.79002V13.4044C3.3319 13.4152 3.33274 13.4257 3.33353 13.4362C3.34139 13.8785 3.51325 14.3183 3.84996 14.6551L7.96635 18.7715C8.13463 18.9398 8.40742 18.9398 8.57564 18.7715C8.74392 18.6032 8.74392 18.3304 8.57564 18.1622L4.4593 14.0457C4.28802 13.8745 4.19363 13.6467 4.19363 13.4043C4.19363 13.1621 4.28802 12.9343 4.4593 12.763C4.63058 12.5916 4.8584 12.4973 5.10066 12.4973C5.34292 12.4973 5.57068 12.5917 5.74381 12.7648L10.8689 17.828C11.4388 18.3979 11.9203 19.5603 11.9203 20.3664V26.5692C11.9203 26.8071 12.1132 27 12.3511 27C12.589 27 12.7819 26.8071 12.7819 26.5692V20.3664C12.7819 19.3325 12.2093 17.9498 11.4763 17.2169Z" fill="#CED6DE"/>
<path d="M24.5751 4.02124C24.2389 4.02124 23.9243 4.11564 23.6563 4.27916C23.3815 4.11147 23.0651 4.02124 22.7368 4.02124C21.7616 4.02124 20.9681 4.81468 20.9681 5.78995V10.2698C20.9681 10.5077 21.161 10.7006 21.399 10.7006C21.6369 10.7006 21.8298 10.5077 21.8298 10.2698V5.78995C21.8298 5.28982 22.2367 4.88292 22.7368 4.88292C22.8376 4.88292 22.936 4.90038 23.0292 4.93207C22.8875 5.18635 22.8065 5.47877 22.8065 5.7899V11.885C22.5352 11.7224 22.224 11.6356 21.8995 11.6356C21.427 11.6356 20.9829 11.8195 20.6507 12.1518L15.5219 17.2186C14.7908 17.9497 14.2181 19.3324 14.2181 20.3663V26.5691C14.2181 26.8071 14.411 27 14.649 27C14.8869 27 15.0798 26.8071 15.0798 26.5691V20.3664C15.0798 19.5604 15.5613 18.398 16.1294 17.8298L21.2581 12.763C21.4294 12.5917 21.6572 12.4973 21.8995 12.4973C22.1417 12.4973 22.3695 12.5917 22.5408 12.763C22.7121 12.9343 22.8065 13.1621 22.8065 13.4044C22.8065 13.6467 22.7121 13.8744 22.5408 14.0458L18.4244 18.1622C18.2562 18.3305 18.2562 18.6032 18.4244 18.7715C18.5927 18.9397 18.8655 18.9397 19.0337 18.7715L23.1501 14.6551C23.4869 14.3183 23.6587 13.8785 23.6666 13.4362C23.6673 13.4257 23.6682 13.4151 23.6682 13.4044V5.79C23.6682 5.28987 24.0751 4.88297 24.5752 4.88297C25.0753 4.88297 25.4822 5.28987 25.4822 5.78958L25.4747 14.2853C25.4746 14.5142 25.3734 14.9025 25.2614 15.1064L19.9547 23.672C19.9515 23.6772 19.9484 23.6825 19.9454 23.6877C19.7588 24.0196 19.6181 24.5571 19.6181 24.9379V26.5616C19.6181 26.7995 19.811 26.9924 20.0489 26.9924C20.2869 26.9924 20.4798 26.7995 20.4798 26.5616V24.9379C20.4798 24.7091 20.5807 24.321 20.6925 24.1172L25.9992 15.5515C26.0024 15.5463 26.0055 15.5411 26.0086 15.5358C26.1952 15.2039 26.3361 14.6666 26.3364 14.286L26.3439 5.78995C26.3438 4.81473 25.5504 4.02124 24.5751 4.02124Z" fill="#CED6DE"/>
<path d="M19.6755 3.15958C19.9135 3.15958 20.1064 2.96668 20.1064 2.72874V0.43084C20.1064 0.192902 19.9135 0 19.6755 0H7.32452C7.08658 0 6.89368 0.192902 6.89368 0.43084V2.72869C6.89368 2.96662 7.08658 3.15953 7.32452 3.15953H7.46811V4.02121H7.32452C7.08658 4.02121 6.89368 4.21411 6.89368 4.45205V6.75C6.89368 6.98794 7.08658 7.18084 7.32452 7.18084H7.46811V8.04252H7.32452C7.08658 8.04252 6.89368 8.23542 6.89368 8.47336V10.7712C6.89368 11.0091 7.08658 11.202 7.32452 11.202H19.6756C19.9135 11.202 20.1064 11.0091 20.1064 10.7712V8.47336C20.1064 8.23542 19.9135 8.04252 19.6756 8.04252H19.532V7.18084H19.6756C19.9135 7.18084 20.1064 6.98794 20.1064 6.75V4.45215C20.1064 4.21421 19.9135 4.02131 19.6756 4.02131H19.532V3.15963H19.6755V3.15958ZM19.2447 10.3404H7.75536V8.90425H19.2447V10.3404ZM19.2447 6.31916H17.3777C17.1398 6.31916 16.9469 6.51206 16.9469 6.75C16.9469 6.98794 17.1398 7.18084 17.3777 7.18084H18.6703V8.04252H8.32979V7.18084H15.6543C15.8922 7.18084 16.0851 6.98794 16.0851 6.75C16.0851 6.51206 15.8922 6.31916 15.6543 6.31916H7.75536V4.88299H19.2447V6.31916ZM8.32979 4.02126V3.15958H18.6702V4.02126H8.32979ZM19.2447 2.29785H7.75536V0.86168H19.2447V2.29785Z" fill="#CED6DE"/>
</svg>
