<svg width="20" height="20" viewBox="0 0 20 20" fill="none" xmlns="http://www.w3.org/2000/svg">
<path d="M13.75 2H3C1.89543 2 1 2.89543 1 4V17C1 18.1046 1.89543 19 3 19H16C17.1046 19 18 18.1046 18 17V8.5" stroke="#1263AE" stroke-width="2"/>
<path d="M3.58651 9.44632C3.40163 9.66165 3.31167 9.93578 3.33363 10.2191C3.35559 10.5024 3.48592 10.7603 3.70196 10.9444L8.94576 15.4395C9.14055 15.606 9.38209 15.6952 9.63567 15.6952C9.66684 15.6952 9.69871 15.6938 9.73059 15.691C10.0175 15.6655 10.276 15.5288 10.4588 15.3071L19.4277 4.39095C19.6076 4.17136 19.6919 3.89511 19.6643 3.61249C19.6359 3.32986 19.5006 3.07486 19.281 2.89424L17.6391 1.54557C17.1865 1.1744 16.5164 1.23957 16.1438 1.6922L9.24113 10.0937L6.4673 7.71728C6.02246 7.33761 5.35096 7.3879 4.96917 7.83274L3.58651 9.44632Z" fill="#1263AE"/>
</svg>
