<svg width="47" height="54" viewBox="0 0 47 54" fill="none" xmlns="http://www.w3.org/2000/svg">
<rect width="2.30378" height="40.5193" rx="1.15189" transform="matrix(0.987502 -0.157608 0.177912 0.984046 28.3546 6.37439)" fill="#1263AE"/>
<path d="M25 10.0001C24.4477 10.0001 24 9.55241 24 9.00012C24 8.44784 24.4477 8.00012 25 8.00012L44 8.00012C44.5523 8.00012 45 8.44784 45 9.00012C45 9.55241 44.5523 10.0001 44 10.0001L25 10.0001Z" fill="#1263AE"/>
<rect x="0.352905" y="10.3535" width="2" height="20" rx="1" transform="rotate(-90 0.352905 10.3535)" fill="#1263AE"/>
<rect width="2.07174" height="18.5342" rx="1.03587" transform="matrix(0.504528 -0.863396 0.895809 0.444439 27.8674 1.78821)" fill="#1263AE"/>
<rect width="2.17397" height="19.5787" rx="1.08699" transform="matrix(0.502416 0.864626 -0.896113 0.443826 17.6025 0.124756)" fill="#1263AE"/>
<rect x="16.3529" y="2.35352" width="2" height="14" rx="1" transform="rotate(-90 16.3529 2.35352)" fill="#1263AE"/>
<rect width="2.17943" height="36.4133" rx="1.08972" transform="matrix(0.985027 0.172401 -0.194477 0.980907 16.6127 6.01123)" fill="#1263AE"/>
<rect width="2.07893" height="14.9905" rx="1.03946" transform="matrix(0.647107 -0.762399 0.811294 0.584638 15.6262 11.7589)" fill="#1263AE"/>
<rect width="2.10303" height="9.82506" rx="1" transform="matrix(0.748447 0.663194 -0.722052 0.691838 29.6156 9.01392)" fill="#1263AE"/>
<rect width="2.07605" height="11.3308" rx="1" transform="matrix(0.633682 0.773594 -0.820978 0.570959 31.5186 19.1082)" fill="#1263AE"/>
<rect width="1.79475" height="6.45611" rx="0.897375" transform="matrix(0.607476 0.794338 -0.838715 0.54457 19.7018 17.3599)" fill="#1263AE"/>
<rect x="6.20007" y="13.7808" width="2.33087" height="5.90252" rx="1.16544" transform="rotate(90 6.20007 13.7808)" fill="#1263AE"/>
<rect x="45.8313" y="13.7808" width="2.33087" height="5.90252" rx="1.16544" transform="rotate(90 45.8313 13.7808)" fill="#1263AE"/>
<rect x="6.20007" y="18.4425" width="2.33087" height="5.90252" rx="1.16544" transform="rotate(90 6.20007 18.4425)" fill="#1263AE"/>
<rect x="45.8313" y="18.4425" width="2.33087" height="5.90252" rx="1.16544" transform="rotate(90 45.8313 18.4425)" fill="#1263AE"/>
<rect width="2.15781" height="12.7878" rx="1.07891" transform="matrix(-0.64417 -0.764882 0.813449 -0.581637 10.03 49.2858)" fill="#1263AE"/>
<rect width="2.45713" height="7.10526" rx="1.22856" transform="matrix(-0.683146 -0.730281 0.783578 -0.621293 1.90247 52.9897)" fill="#1263AE"/>
<rect width="2.46584" height="7.70353" rx="1.23292" transform="matrix(0.73541 -0.677622 0.73541 0.677622 38.7599 48.3673)" fill="#1263AE"/>
<rect width="2.15781" height="13.8111" rx="1.07891" transform="matrix(-0.64417 -0.764882 0.813449 -0.581637 23.8029 39.9351)" fill="#1263AE"/>
<rect width="2.15781" height="8.39003" rx="1.07891" transform="matrix(-0.64417 -0.764882 0.813449 -0.581637 13.9825 33.5194)" fill="#1263AE"/>
<rect x="4.51367" y="49.5209" width="2.33087" height="37.1015" rx="1.16543" transform="rotate(-90 4.51367 49.5209)" fill="#1263AE"/>
<rect width="2.07535" height="19.6161" rx="1.03768" transform="matrix(0.630377 -0.776289 0.823298 0.567609 13.7891 20.8306)" fill="#1263AE"/>
<rect width="2.07496" height="24.2899" rx="1.03748" transform="matrix(0.628521 -0.777793 0.82459 0.56573 11.6342 32.3647)" fill="#1263AE"/>
</svg>
