<svg width="42" height="48" viewBox="0 0 42 48" fill="none" xmlns="http://www.w3.org/2000/svg">
<rect width="2.04025" height="35.8844" rx="1.02013" transform="matrix(0.987502 -0.157608 0.177912 0.984046 25.1112 5.77478)" fill="white"/>
<rect x="20.3691" y="8.98572" width="1.77123" height="19.4835" rx="0.885613" transform="rotate(-90 20.3691 8.98572)" fill="white"/>
<rect x="0.3125" y="9.29871" width="1.77123" height="17.7123" rx="0.885613" transform="rotate(-90 0.3125 9.29871)" fill="white"/>
<rect width="1.83476" height="17.2416" rx="0.917381" transform="matrix(0.504467 -0.863431 0.89584 0.444376 24.6796 1.71387)" fill="white"/>
<rect width="1.9253" height="17.7609" rx="0.962649" transform="matrix(0.487188 0.873297 -0.903753 0.428054 16.0515 0.189087)" fill="white"/>
<rect x="14.4823" y="2.21387" width="1.77123" height="12.3986" rx="0.885613" transform="rotate(-90 14.4823 2.21387)" fill="white"/>
<rect width="1.93014" height="32.2481" rx="0.965068" transform="matrix(0.985027 0.172401 -0.194477 0.980907 14.7124 5.45325)" fill="white"/>
<rect width="1.84112" height="13.2758" rx="0.920562" transform="matrix(0.647107 -0.762399 0.811294 0.584638 13.8389 10.5435)" fill="white"/>
<rect width="1.86247" height="8.7012" rx="0.931237" transform="matrix(0.748447 0.663194 -0.722052 0.691838 26.228 8.11243)" fill="white"/>
<rect width="1.83858" height="10.0347" rx="0.919289" transform="matrix(0.633682 0.773594 -0.820978 0.570959 27.9133 17.052)" fill="white"/>
<rect width="1.58945" height="5.71762" rx="0.794727" transform="matrix(0.607476 0.794338 -0.838715 0.54457 17.4481 15.5037)" fill="white"/>
<rect x="5.49084" y="12.3341" width="2.06425" height="5.22735" rx="1.03212" transform="rotate(90 5.49084 12.3341)" fill="white"/>
<rect x="40.5889" y="12.3341" width="2.06425" height="5.22735" rx="1.03212" transform="rotate(90 40.5889 12.3341)" fill="white"/>
<rect x="5.49084" y="16.4625" width="2.06425" height="5.22735" rx="1.03212" transform="rotate(90 5.49084 16.4625)" fill="white"/>
<rect x="40.5889" y="16.4625" width="2.06425" height="5.22735" rx="1.03212" transform="rotate(90 40.5889 16.4625)" fill="white"/>
<rect width="1.91099" height="11.325" rx="0.955494" transform="matrix(-0.64417 -0.764882 0.813449 -0.581637 8.88269 43.7776)" fill="white"/>
<rect width="2.17606" height="6.29251" rx="1.08803" transform="matrix(-0.720447 -0.69351 0.749973 -0.661469 1.8313 47.1443)" fill="white"/>
<rect width="2.18378" height="6.82235" rx="1.09189" transform="matrix(0.73541 -0.677622 0.73541 0.677622 34.3263 42.9642)" fill="white"/>
<rect width="1.91099" height="12.2313" rx="0.955494" transform="matrix(-0.64417 -0.764882 0.813449 -0.581637 21.0801 35.4966)" fill="white"/>
<rect width="1.91099" height="7.43032" rx="0.955494" transform="matrix(-0.64417 -0.764882 0.813449 -0.581637 12.3832 29.8148)" fill="white"/>
<rect x="3.99744" y="43.9858" width="2.06425" height="32.8576" rx="1.03212" transform="rotate(-90 3.99744 43.9858)" fill="white"/>
<rect width="1.83796" height="17.3722" rx="0.91898" transform="matrix(0.630377 -0.776289 0.823298 0.567609 12.2118 18.5774)" fill="white"/>
<rect width="1.83762" height="21.5115" rx="0.918808" transform="matrix(0.628521 -0.777793 0.82459 0.56573 10.3033 28.7921)" fill="white"/>
</svg>
