<svg width="36" height="36" viewBox="0 0 36 36" fill="none" xmlns="http://www.w3.org/2000/svg">
<path d="M25.3828 24.9137H24.3281V27.9044H25.1666L18.3048 34.9453H17.6951L13.1357 30.293L12.3804 31.0291L17.2502 36H18.7498L27.6671 26.8497H25.3828V24.9137Z" fill="#CED6DE"/>
<path d="M10.8333 27.9044H11.6719V24.9137H10.6172V26.8497H8.33286L12.6443 31.2738L13.3996 30.5377L10.8333 27.9044Z" fill="#CED6DE"/>
<path d="M15.069 19H16.4483V16.8824H20.5862V15.4706H16.4483V14.0588H19.5517C21.4531 14.0588 23 12.4755 23 10.5294C23 8.58329 21.4531 7 19.5517 7H15.7586C15.5757 7 15.4003 7.07437 15.271 7.20675C15.1416 7.33913 15.069 7.51867 15.069 7.70588V12.6471H13V14.0588H15.069V15.4706H13V16.8824H15.069V19ZM16.4483 8.41176H19.5517C20.6924 8.41176 21.6207 9.36188 21.6207 10.5294C21.6207 11.6969 20.6924 12.6471 19.5517 12.6471H16.4483V8.41176Z" fill="#CED6DE"/>
<circle cx="17.5" cy="12.5" r="11" stroke="#CED6DE"/>
</svg>
