<svg width="28" height="28" viewBox="0 0 28 28" fill="none" xmlns="http://www.w3.org/2000/svg">
<path d="M6.53334 18.4333C4.98913 18.4333 3.73334 19.6891 3.73334 21.2334C3.73334 22.7776 4.98913 24.0334 6.53334 24.0334C8.07755 24.0334 9.33334 22.7776 9.33334 21.2334C9.33334 19.6891 8.0775 18.4333 6.53334 18.4333ZM6.53334 23.1C5.50385 23.1 4.66669 22.2628 4.66669 21.2334C4.66669 20.2039 5.5039 19.3667 6.53334 19.3667C7.56278 19.3667 8.39999 20.2039 8.39999 21.2334C8.39999 22.2628 7.56278 23.1 6.53334 23.1Z" fill="#CED6DE"/>
<path d="M22.4 18.4333C20.8558 18.4333 19.6 19.6891 19.6 21.2334C19.6 22.7776 20.8558 24.0334 22.4 24.0334C23.9442 24.0334 25.2 22.7776 25.2 21.2334C25.2 19.6891 23.9442 18.4333 22.4 18.4333ZM22.4 23.1C21.3705 23.1 20.5333 22.2628 20.5333 21.2334C20.5333 20.2039 21.3705 19.3667 22.4 19.3667C23.4295 19.3667 24.2666 20.2039 24.2666 21.2334C24.2666 22.2628 23.4295 23.1 22.4 23.1Z" fill="#CED6DE"/>
<path d="M27.9258 15.8475L23.7258 9.31419C23.6399 9.18069 23.492 9.09998 23.3333 9.09998H18.2C17.9419 9.09998 17.7333 9.30905 17.7333 9.56662V21.2333C17.7333 21.4913 17.9419 21.6999 18.2 21.6999H20.0666V20.7666H18.6666V10.0333H23.0785L27.0666 16.2372V20.7667H24.7333V21.7H27.5333C27.7914 21.7 27.9999 21.4914 27.9999 21.2333V16.1C28 16.0108 27.9743 15.9226 27.9258 15.8475Z" fill="#CED6DE"/>
<path d="M20.5334 15.1667V11.9H24.2667V10.9667H20.0667C19.8087 10.9667 19.6001 11.1757 19.6001 11.4333V15.6333C19.6001 15.8914 19.8087 16.1 20.0667 16.1H27.0667V15.1666H20.5334V15.1667Z" fill="#CED6DE"/>
<path d="M18.2 5.83337H0.466648C0.20907 5.83337 0 6.04244 0 6.30002V21.2334C0 21.4914 0.20907 21.7 0.466648 21.7H4.2V20.7667H0.933352V6.76667H17.7334V20.7667H8.86665V21.7H18.2C18.4581 21.7 18.6667 21.4914 18.6667 21.2334V6.30002C18.6667 6.04244 18.4581 5.83337 18.2 5.83337Z" fill="#CED6DE"/>
<path d="M3.26667 18.9H0.466675V19.8334H3.26667V18.9Z" fill="#CED6DE"/>
<path d="M17.7333 18.9H9.79999V19.8334H17.7333V18.9Z" fill="#CED6DE"/>
<path d="M27.5333 18.9H25.6667V19.8334H27.5333V18.9Z" fill="#CED6DE"/>
<path d="M18.2 7.69995H1.86664V8.6333H18.2V7.69995Z" fill="#CED6DE"/>
<path d="M7 20.7666H6.06665V21.7H7V20.7666Z" fill="#CED6DE"/>
<path d="M22.8667 20.7666H21.9333V21.7H22.8667V20.7666Z" fill="#CED6DE"/>
<path d="M8.39999 3.96667H1.86664V4.90003H8.39999V3.96667Z" fill="#CED6DE"/>
<path d="M0.933352 3.96667H0V4.90003H0.933352V3.96667Z" fill="#CED6DE"/>
</svg>
